<?xml version="1.0" standalone="no"?>
<!DOCTYPE svg PUBLIC "-//W3C//DTD SVG 20010904//EN"
 "http://www.w3.org/TR/2001/REC-SVG-20010904/DTD/svg10.dtd">
<svg version="1.0" xmlns="http://www.w3.org/2000/svg"
 width="640.000000pt" height="1280.000000pt" viewBox="0 0 640.000000 1280.000000"
 preserveAspectRatio="xMidYMid meet">
<metadata>
Created by potrace 1.15, written by Peter Selinger 2001-2017
</metadata>
<g transform="translate(0.000000,1280.000000) scale(0.100000,-0.100000)"
fill="#000000" stroke="none">
<path d="M3902 12780 c-8 -14 -12 -78 -12 -217 0 -109 -5 -387 -10 -618 -5
-231 -12 -621 -16 -867 l-7 -448 -34 -6 c-19 -4 -37 -13 -40 -20 -11 -30 -42
-11 -104 61 -46 54 -70 75 -87 75 l-24 0 7 -97 c7 -105 18 -135 89 -245 30
-48 42 -58 64 -58 16 0 33 5 39 11 13 13 33 4 33 -16 0 -7 7 -15 15 -19 10 -3
15 -19 15 -45 0 -35 -4 -42 -25 -47 -25 -6 -33 -28 -15 -39 6 -3 10 -22 10
-41 0 -29 -3 -34 -24 -34 -49 0 -56 -9 -56 -69 l0 -57 -62 -12 c-35 -6 -99
-29 -144 -51 l-80 -40 -195 -10 c-786 -43 -1235 -112 -1341 -208 -20 -18 -24
-53 -7 -70 8 -8 8 -17 0 -32 -32 -59 60 -118 269 -172 251 -65 685 -118 1192
-144 94 -5 130 -11 140 -22 6 -8 29 -22 50 -30 32 -13 36 -18 28 -33 -14 -26
-12 -120 3 -150 7 -14 33 -36 58 -50 76 -41 76 -40 83 -157 6 -76 12 -110 22
-118 13 -9 14 -70 7 -475 -4 -256 -9 -430 -11 -387 -4 100 -19 98 -49 -9 -13
-43 -28 -88 -33 -99 -8 -15 -8 -70 0 -190 14 -214 26 -296 47 -312 15 -11 16
-112 11 -1147 l-6 -1134 -33 -31 c-33 -30 -37 -30 -133 -31 l-98 0 5 -26 c4
-21 -7 -39 -57 -94 -111 -123 -1028 -1022 -1211 -1187 -99 -90 -521 -502 -938
-915 -702 -697 -758 -756 -764 -793 -4 -22 -14 -47 -23 -57 -26 -28 -166 -266
-206 -350 -19 -42 -38 -95 -41 -117 -5 -34 -2 -41 18 -52 29 -15 243 -24 319
-12 l54 8 60 219 c58 214 59 219 42 247 -16 27 -16 33 -2 77 14 42 87 118 679
707 364 363 712 705 772 761 l110 100 190 -37 c105 -21 332 -65 505 -99 173
-33 338 -65 365 -71 28 -6 60 -12 73 -15 13 -3 22 -12 22 -23 0 -15 11 -19 61
-25 34 -3 86 -6 115 -6 47 0 54 -3 54 -19 0 -15 -10 -21 -42 -26 -110 -18
-213 -99 -263 -206 -29 -64 -34 -104 -48 -434 l-12 -260 -111 -16 c-112 -16
-160 -29 -294 -80 -53 -20 -107 -30 -185 -37 l-109 -9 -33 -39 c-28 -33 -33
-47 -33 -91 0 -45 3 -53 18 -53 10 0 160 -96 333 -212 272 -185 314 -217 317
-241 2 -15 -1 -27 -7 -27 -19 0 -42 -57 -32 -82 11 -28 86 -105 122 -123 56
-30 156 -37 437 -32 216 3 305 9 403 25 146 24 234 54 251 85 9 16 11 127 9
422 -1 220 -5 411 -8 425 -4 17 -2 22 4 15 6 -5 20 -48 33 -95 99 -381 272
-993 294 -1044 8 -17 62 -84 121 -150 59 -65 110 -128 115 -140 14 -37 1 -76
-25 -76 -20 0 -23 -6 -29 -72 -19 -201 -26 -337 -20 -378 10 -65 63 -114 141
-130 63 -14 191 -8 236 9 23 9 27 16 27 52 0 22 -9 86 -20 140 -21 101 -88
368 -97 382 -2 4 -18 7 -35 7 -23 0 -29 4 -24 15 3 9 0 15 -9 15 -27 0 -17 67
36 229 l50 156 -99 350 c-55 193 -160 561 -232 820 -105 370 -139 477 -159
501 -14 17 -61 70 -105 118 l-79 86 -43 151 -43 150 47 96 47 95 179 90 c133
66 182 86 187 76 3 -7 15 -49 25 -93 l18 -80 384 -530 c275 -381 401 -547 447
-590 36 -33 65 -68 65 -77 0 -9 5 -20 11 -24 7 -4 1 -16 -15 -33 l-25 -26 8
-178 c5 -98 11 -180 13 -182 1 -2 37 -17 78 -33 70 -28 81 -29 145 -22 84 9
111 19 154 56 39 32 41 14 -40 267 -55 169 -63 189 -90 202 -16 9 -35 28 -44
44 -8 16 -20 31 -27 33 -8 3 -6 20 11 60 14 35 20 62 14 71 -4 7 -158 227
-341 489 l-332 475 -131 104 c-107 86 -140 119 -189 189 -32 47 -66 94 -77
104 -15 16 -18 32 -15 90 l4 71 -242 325 c-234 314 -246 328 -349 411 -132
107 -195 174 -188 200 5 17 0 19 -40 19 -36 0 -51 5 -69 26 l-24 25 0 1135 c0
691 4 1134 9 1134 19 0 47 211 53 399 l2 83 -37 34 -37 34 0 460 c0 447 1 461
20 480 17 17 20 33 20 110 0 75 3 90 16 90 14 0 15 -13 9 -100 l-8 -100 52 0
51 0 0 54 c0 30 -4 58 -10 61 -5 3 -10 26 -10 51 0 40 2 44 24 44 28 0 34 26
41 179 l5 92 47 25 c44 23 65 25 268 34 699 31 1206 110 1343 210 34 24 42 36
42 62 0 17 -7 39 -16 49 -15 17 -15 19 0 34 60 61 -56 123 -324 174 -253 48
-838 101 -1114 101 -88 0 -89 0 -178 52 -74 42 -99 52 -139 52 l-49 1 0 61 c0
66 -6 74 -57 74 -25 0 -26 1 -19 54 5 48 4 54 -14 59 -16 4 -20 14 -20 46 0
28 5 44 15 47 8 4 15 12 15 20 0 8 5 14 10 14 7 0 10 47 8 133 -3 129 -3 132
-26 135 -13 2 -26 10 -29 19 -3 8 0 492 7 1074 14 1113 14 1089 -29 1089 -9 0
-22 -9 -29 -20z m-272 -8108 c8 20 9 19 9 -14 1 -31 6 -38 31 -50 l30 -13 0
-637 0 -638 -115 0 c-64 0 -148 7 -188 15 -40 8 -184 35 -322 60 -137 25 -347
64 -465 85 -118 22 -216 40 -218 40 -2 0 11 20 29 45 18 25 35 45 39 45 4 0
31 24 61 53 30 30 157 152 283 273 126 120 280 276 343 347 63 70 122 127 131
127 8 0 12 3 8 7 -8 9 154 173 171 173 7 0 13 5 13 12 0 7 16 29 36 50 l37 37
39 -20 38 -20 10 23z m919 -508 c104 -145 188 -264 185 -264 -12 0 -104 67
-113 83 -7 10 -108 141 -226 292 -118 150 -215 276 -215 279 0 3 40 -24 90
-60 87 -63 94 -73 279 -330z m-369 139 c0 -7 41 -183 90 -391 50 -208 90 -386
90 -395 0 -18 -225 -131 -246 -123 -14 5 -28 52 -84 272 l-40 156 0 347 0 346
95 -100 c52 -55 94 -105 95 -112z m245 -311 c57 -80 111 -144 126 -151 14 -6
34 -19 45 -29 10 -10 50 -40 87 -66 38 -27 65 -52 60 -56 -4 -4 -70 -37 -146
-73 -91 -44 -139 -62 -142 -54 -2 7 -34 131 -70 277 -36 146 -68 273 -72 284
-9 33 10 10 112 -132z m-405 -658 c0 -1 -7 -4 -15 -8 -12 -4 -15 5 -14 57 l1
62 13 -55 c8 -30 14 -56 15 -56z m1134 -23 c74 -62 103 -99 296 -372 118 -167
263 -373 322 -457 60 -85 103 -150 96 -146 -7 4 -42 31 -77 58 -54 44 -108
114 -374 486 -171 239 -322 450 -335 468 -13 17 -21 32 -18 32 4 0 44 -31 90
-69z m-796 -43 c-22 -66 -38 -94 -38 -66 0 9 -14 28 -31 43 -17 14 -30 28 -27
30 3 3 104 51 115 54 1 1 -8 -27 -19 -61z m-124 -117 c5 -17 7 -33 5 -35 -7
-6 -169 27 -169 35 0 3 13 9 29 12 19 4 32 14 37 29 3 13 12 26 18 30 17 11
70 -36 80 -71z m-147 -139 c30 -9 112 -87 123 -118 6 -14 14 -226 20 -472 5
-246 12 -567 15 -714 l6 -268 -42 0 -41 0 5 63 c4 34 6 99 6 145 1 68 4 82 17
82 10 0 14 7 12 22 -4 32 -51 47 -86 27 -31 -17 -42 -49 -18 -49 14 0 16 -20
16 -144 0 -144 0 -145 -26 -165 -15 -12 -34 -21 -42 -21 -14 0 -664 370 -686
390 -4 4 -5 50 -1 102 l7 94 126 27 c69 15 129 24 133 20 4 -5 9 -30 11 -58
l3 -50 40 3 c22 2 45 8 51 13 6 5 39 6 73 2 72 -7 81 -1 81 58 0 72 10 97 41
104 28 6 29 9 29 60 0 53 0 54 -32 57 -23 2 -34 9 -37 23 -2 11 -11 25 -20 32
-15 12 -15 14 2 24 14 8 17 26 17 113 0 80 -3 106 -15 116 -19 16 -19 39 0 64
21 28 21 199 0 216 -8 7 -15 19 -15 26 0 10 -13 14 -45 14 -32 0 -45 -4 -45
-14 0 -8 -7 -16 -15 -20 -12 -4 -15 -27 -15 -115 0 -62 4 -112 10 -116 6 -3
10 -17 10 -30 0 -13 -4 -27 -10 -30 -14 -8 -13 -208 1 -222 7 -7 7 -22 2 -44
-8 -31 -14 -35 -62 -46 -70 -15 -310 -48 -315 -42 -8 8 16 614 25 652 20 76
132 167 207 167 32 0 32 -1 32 -49 l0 -49 44 -11 c58 -14 210 -13 261 3 l40
12 3 62 3 62 37 -1 c20 -1 47 -4 59 -7z m418 -293 c62 -68 104 -124 112 -147
6 -20 45 -161 87 -312 41 -151 138 -507 216 -790 125 -455 140 -519 132 -550
-6 -19 -20 -67 -31 -107 l-21 -71 -110 111 -111 111 -34 106 c-64 197 -308
1064 -384 1367 -17 67 -31 143 -31 169 0 43 57 225 70 223 3 0 50 -50 105
-110z m-655 -25 c0 -35 -1 -35 -37 -32 -35 3 -38 6 -41 36 -3 31 -2 32 37 32
40 0 41 -1 41 -36z m-10 -134 c0 -16 -7 -20 -30 -20 -23 0 -30 4 -30 20 0 16
7 20 30 20 23 0 30 -4 30 -20z m10 -140 c0 -28 -2 -30 -40 -30 -38 0 -40 2
-40 30 0 28 2 30 40 30 38 0 40 -2 40 -30z m-10 -130 c0 -5 -11 -10 -25 -10
-14 0 -25 5 -25 10 0 6 11 10 25 10 14 0 25 -4 25 -10z m-574 -367 c-3 -21 -6
-46 -6 -55 0 -16 -6 -15 -50 10 -62 34 -65 56 -7 69 70 17 70 17 63 -24z m-50
-79 l44 -26 0 -71 c0 -67 -1 -69 -18 -54 -27 25 -78 22 -96 -5 -21 -29 -20
-35 4 -41 18 -5 20 -14 20 -97 l0 -92 -29 19 c-205 132 -530 350 -530 355 -1
4 121 8 271 10 206 2 272 6 276 16 5 16 7 16 58 -14z m501 -291 c204 -118 268
-159 255 -164 -24 -9 -452 -39 -551 -39 l-74 0 6 122 c4 66 7 159 7 205 l0 84
43 -25 c23 -14 165 -97 314 -183z m-468 0 c-1 -138 -16 -176 -19 -48 -1 55 -3
110 -4 123 -2 13 3 22 11 22 10 0 13 -22 12 -97z"/>
</g>
</svg>
